<svg width="24" height="24" viewBox="0 0 24 24" fill="none" xmlns="http://www.w3.org/2000/svg">
<path fill-rule="evenodd" clip-rule="evenodd" d="M13.5526 13.8174C13.0897 14.1447 12.5497 14.2987 12.0096 14.2987C11.4696 14.2987 10.9296 14.1447 10.4667 13.8174L2.59788 8.36907C2.34716 8.19581 2 8.36907 2 8.6771V18.2838C2 18.8999 2.25072 19.4582 2.63645 19.8625C3.04146 20.286 3.62005 20.5555 4.25651 20.5555H19.7435C20.3799 20.5555 20.9585 20.286 21.3636 19.8625C21.7493 19.4582 22 18.8999 22 18.2838V8.6771C22 8.36907 21.6528 8.17655 21.4021 8.36907L13.5526 13.8174Z" fill="white"/>
<path fill-rule="evenodd" clip-rule="evenodd" d="M11.3543 12.5468C11.74 12.8163 12.28 12.8163 12.6657 12.5468L21.4796 6.44389C21.6532 6.32838 21.6918 6.07811 21.5761 5.90484C21.171 5.36579 20.5153 5 19.7631 5H4.27615C3.54326 5 2.88753 5.34653 2.46323 5.90484C2.32822 6.07811 2.36679 6.32838 2.55966 6.44389L11.3543 12.5468Z" fill="white"/>
</svg>
