<svg width="28" height="25" viewBox="0 0 28 25" fill="none" xmlns="http://www.w3.org/2000/svg">
<path d="M19.6923 7H25.5385C26.3456 7 27 7.63426 27 8.41667V24L22.1283 20.077C21.8659 19.8657 21.5355 19.75 21.1943 19.75H9.46154C8.65435 19.75 8 19.1157 8 18.3333V14.0833" stroke="#01049B" stroke-width="2" stroke-linecap="round" stroke-linejoin="round"/>
<path d="M18.5385 1H2.46154C1.65435 1 1 1.63426 1 2.41667V18L5.87172 14.077C6.13413 13.8657 6.46453 13.75 6.80568 13.75H18.5385C19.3456 13.75 20 13.1157 20 12.3333V2.41667C20 1.63426 19.3456 1 18.5385 1Z" stroke="#01049B" stroke-width="2" stroke-linecap="round" stroke-linejoin="round"/>
</svg>
