<svg width="23" height="29" viewBox="0 0 23 29" fill="none" xmlns="http://www.w3.org/2000/svg">
<path d="M11.3847 12.7689C12.9141 12.7689 14.1539 11.5291 14.1539 9.9997C14.1539 8.4703 12.9141 7.23047 11.3847 7.23047C9.85531 7.23047 8.61548 8.4703 8.61548 9.9997C8.61548 11.5291 9.85531 12.7689 11.3847 12.7689Z" stroke="#00029C" stroke-width="2" stroke-linecap="round" stroke-linejoin="round"/>
<path d="M11.3846 28C11.3846 28 21.7692 20.7308 21.7692 11.3846C21.7692 8.63044 20.6751 5.98908 18.7276 4.04158C16.7802 2.09409 14.1388 1 11.3846 1C8.63044 1 5.98908 2.09409 4.04158 4.04158C2.09409 5.98908 1 8.63044 1 11.3846C1 20.7308 11.3846 28 11.3846 28Z" stroke="#00029C" stroke-width="2" stroke-linecap="round" stroke-linejoin="round"/>
</svg>
