<svg width="198" height="57" viewBox="0 0 198 57" fill="none" xmlns="http://www.w3.org/2000/svg">
<rect width="197.917" height="57" fill="black"/>
<mask id="mask0_455_563" style="mask-type:alpha" maskUnits="userSpaceOnUse" x="0" y="0" width="198" height="57">
<rect width="197.917" height="57" fill="#D9D9D9"/>
</mask>
<g mask="url(#mask0_455_563)">
<path fill-rule="evenodd" clip-rule="evenodd" d="M16.625 -4.29313H18.3849V4.62658H16.625V7.99195H25.2724V4.62658H23.8498V-4.29313H28.3203V4.62658H26.8985V7.99195H35.5031V4.62658H33.786V-4.29313H35.5031V-7.65771H16.625V-4.29313Z" fill="white"/>
<path fill-rule="evenodd" clip-rule="evenodd" d="M48.3226 -4.29313H49.7674V-3.70967L44.6944 -0.114715L44.6873 -4.29313H46.155V-7.65771H37.4839V-4.29313H39.2446V4.62658H37.4839V7.99195H46.155V4.62658H44.6873V3.90537L49.7674 0.29141V4.62658H48.3226V7.99195H56.8821V4.62658H55.1412V-4.29313H56.8821V-7.65771H48.3226V-4.29313Z" fill="white"/>
<path fill-rule="evenodd" clip-rule="evenodd" d="M73.0163 -5.72717C72.3078 -6.44204 71.433 -7.00254 70.3864 -7.40946C69.3382 -7.81638 68.1167 -8.01904 66.7162 -8.01904C65.3158 -8.01904 64.0934 -7.81638 63.0461 -7.40946C61.9995 -7.00254 61.1271 -6.44204 60.4241 -5.72717C59.7274 -5.0115 59.1978 -4.15729 58.8463 -3.16454C58.4924 -2.17021 58.3151 -1.08642 58.3151 0.086832C58.3151 1.26087 58.4924 2.34941 58.8463 3.35087C59.1978 4.35154 59.7274 5.21762 60.4241 5.94675C61.1271 6.67825 61.9987 7.24667 63.0461 7.652C64.0926 8.05812 65.3158 8.26237 66.7162 8.26237C68.1167 8.26237 69.3382 8.05812 70.3864 7.652C71.433 7.24587 72.3086 6.67825 73.0163 5.94675C73.7241 5.21762 74.2537 4.35075 74.6099 3.35087C74.963 2.34941 75.1388 1.26087 75.1388 0.086832C75.1388 -1.08642 74.963 -2.171 74.6099 -3.16454C74.2545 -4.15808 73.7241 -5.01229 73.0163 -5.72717ZM69.1656 1.96229C69.0833 2.51962 68.94 2.99383 68.7374 3.38412C68.5339 3.77679 68.2711 4.07762 67.9465 4.28821C67.6243 4.49879 67.2118 4.60487 66.7162 4.60487C66.2206 4.60487 65.8058 4.49483 65.4757 4.27792C65.144 4.05941 64.8756 3.75383 64.6729 3.36354C64.4695 2.97087 64.3262 2.49746 64.2431 1.94012C64.1607 1.38358 64.118 0.766873 64.118 0.0876226C64.118 -0.514043 64.1607 -1.08246 64.2431 -1.61684C64.3254 -2.15042 64.4695 -2.61829 64.6729 -3.01729C64.8756 -3.41629 65.144 -3.73217 65.4757 -3.96571C65.8058 -4.19767 66.2206 -4.31563 66.7162 -4.31563C67.2118 -4.31563 67.6243 -4.20954 67.9465 -3.99896C68.2711 -3.78838 68.5339 -3.48754 68.7374 -3.09488C68.94 -2.70379 69.0841 -2.23671 69.1656 -1.69521C69.248 -1.15292 69.2915 -0.557585 69.2915 0.0884151C69.2915 0.780332 69.248 1.40654 69.1656 1.96229Z" fill="white"/>
<path fill-rule="evenodd" clip-rule="evenodd" d="M86.846 -4.29313H88.2694V-1.53813H83.7973V-4.29313H85.2207V-7.65771H76.5718V-4.29313H78.3317V4.62658H76.5718V7.99195H85.2207V4.62658H83.7973V1.57945H88.2694V4.62658H86.846V7.99195H95.4491V4.62658H93.7343V-4.29313H95.4491V-7.65771H86.846V-4.29313Z" fill="white"/>
<path fill-rule="evenodd" clip-rule="evenodd" d="M109.353 4.62658H104.588V1.57945L108.044 1.64674V-1.60542L104.588 -1.53813V-4.29313H109.172V-1.53813H112.855V-7.65771H97.4294V-4.29313H99.1014V4.62658H97.4294V7.99195H113.034V1.57945H109.353V4.62658Z" fill="white"/>
<path fill-rule="evenodd" clip-rule="evenodd" d="M128.836 -6.15623C128.361 -6.6154 127.729 -6.98036 126.939 -7.25269C126.148 -7.52344 125.166 -7.65881 123.991 -7.65881H115.095V-4.29423H116.743V4.62548H115.095V7.99085H124.33V4.62548H122.231V2.54815H124.375C125.31 2.54815 126.136 2.41673 126.86 2.1531C127.582 1.88948 128.19 1.52373 128.677 1.05665C129.167 0.591145 129.536 0.0520201 129.784 -0.557563C130.033 -1.16794 130.157 -1.82502 130.157 -2.53277C130.157 -3.24211 130.054 -3.90631 129.852 -4.53173C129.65 -5.15477 129.31 -5.69706 128.836 -6.15623ZM124.036 -1.1624C123.812 -0.810105 123.412 -0.635147 122.84 -0.635147H122.23V-4.29344H122.703C123.819 -4.29344 124.375 -3.66565 124.375 -2.40848C124.375 -1.92952 124.262 -1.5139 124.036 -1.1624Z" fill="white"/>
<path fill-rule="evenodd" clip-rule="evenodd" d="M25.4085 23.6867H23.8054V14.7433H25.4085V11.4238H16.625V14.7433H18.3619V23.6867H16.625V27.0505H25.4085V23.6867Z" fill="white"/>
<path fill-rule="evenodd" clip-rule="evenodd" d="M24.4142 20.0506L27.9387 25.764C28.1485 26.0807 28.3662 26.3435 28.5934 26.5541C28.8182 26.7663 29.0692 26.9278 29.3486 27.0402C29.6281 27.1534 29.9392 27.227 30.2868 27.2666C30.6319 27.3038 31.0293 27.3149 31.4822 27.2991C31.6318 27.2991 31.8361 27.2848 32.0926 27.2547C32.3467 27.2246 32.6174 27.1827 32.9032 27.1304C33.189 27.0782 33.4843 27.0141 33.7843 26.9389C34.086 26.8629 34.3631 26.7726 34.6203 26.6681V23.7548L32.4306 23.5521L29.2687 18.7198L31.8202 14.9926L33.7622 14.8802L34.0567 11.9669C33.0331 11.4111 31.9176 11.1309 30.7135 11.1309C30.0516 11.1309 29.4856 11.2449 29.0185 11.4697C28.553 11.6953 28.1239 12.1394 27.7321 12.8013L24.4126 18.3129V20.0506H24.4142Z" fill="white"/>
<path fill-rule="evenodd" clip-rule="evenodd" d="M44.9659 23.6865H43.4982V22.9637L48.5799 19.3513V23.6865H47.1359V27.0502H55.6946V23.6865H53.9553V14.766H55.6946V11.4014H47.1359V14.766H48.5799V15.3494L43.5069 18.9436L43.4982 14.766H44.9659V11.4014H36.2964V14.766H38.0563V23.6865H36.2964V27.0502H44.9659V23.6865Z" fill="white"/>
<path fill-rule="evenodd" clip-rule="evenodd" d="M67.9406 14.766H69.364V17.5217H64.8911V14.766H66.3145V11.4014H57.6648V14.766H59.4247V23.6865H57.6648V27.0502H66.3145V23.6865H64.8911V20.6377H69.364V23.6865H67.9406V27.0502H76.5437V23.6865H74.8289V14.766H76.5437V11.4014H67.9406V14.766Z" fill="white"/>
<path fill-rule="evenodd" clip-rule="evenodd" d="M80.0991 25.0074C80.7989 25.7381 81.6729 26.3057 82.7187 26.7126C83.7653 27.1187 84.9892 27.3222 86.3889 27.3222C87.7886 27.3222 89.0109 27.1187 90.0575 26.7126C91.1041 26.3049 91.982 25.7381 92.6898 25.0074C93.3967 24.2774 93.9271 23.4121 94.2802 22.4099C94.6341 21.41 94.8122 20.3215 94.8122 19.1459C94.8122 17.9726 94.6341 16.888 94.2802 15.8945C93.9279 14.9009 93.3967 14.0459 92.6898 13.3319C91.9812 12.617 91.1041 12.0565 90.0575 11.6496C89.0117 11.2434 87.7886 11.0392 86.3889 11.0392C84.9892 11.0392 83.7661 11.2426 82.7187 11.6496C81.6737 12.0565 80.7989 12.617 80.0991 13.3319C79.3993 14.0459 78.8704 14.9009 78.5181 15.8945C78.1643 16.888 77.9869 17.9726 77.9869 19.1459C77.9869 20.3207 78.1643 21.4092 78.5181 22.4099C78.8704 23.4129 79.3993 24.2774 80.0991 25.0074ZM83.9157 17.443C83.9973 16.9094 84.1398 16.4407 84.3432 16.0425C84.5467 15.6451 84.8143 15.3276 85.146 15.0941C85.4777 14.8606 85.8909 14.7442 86.3881 14.7442C86.8845 14.7442 87.2946 14.8503 87.6176 15.0601C87.9421 15.2706 88.205 15.5723 88.4084 15.9634C88.6119 16.356 88.7552 16.8215 88.8391 17.3646C88.9214 17.9061 88.9618 18.5014 88.9618 19.1466C88.9618 19.8401 88.9206 20.4648 88.8391 21.0213C88.756 21.5794 88.6119 22.0529 88.4084 22.4431C88.205 22.8366 87.9421 23.1359 87.6176 23.3472C87.2946 23.5586 86.8845 23.6631 86.3881 23.6631C85.8909 23.6631 85.4777 23.5546 85.146 23.3361C84.8143 23.1184 84.5467 22.8129 84.3432 22.4218C84.1398 22.0291 83.9965 21.5557 83.9157 20.9984C83.8318 20.4418 83.7906 19.8243 83.7906 19.1459C83.7906 18.5458 83.8318 17.9774 83.9157 17.443Z" fill="white"/>
<path fill-rule="evenodd" clip-rule="evenodd" d="M99.9694 14.766H101.73V23.6865H99.8562V27.0502H108.979V23.6865H107.151V14.766H108.935V17.5439H112.57V11.4014H96.3333V17.5439H99.9694V14.766Z" fill="white"/>
<path fill-rule="evenodd" clip-rule="evenodd" d="M129.68 20.6377H125.998V23.6865H121.234V20.6377L124.689 20.7058V17.4529L121.234 17.5217V14.766H125.818V17.5217H129.499V11.4014H114.077V14.766H115.747V23.6865H114.077V27.0502H129.68V20.6377Z" fill="white"/>
<path fill-rule="evenodd" clip-rule="evenodd" d="M143.86 11.4014H137.152L132.343 23.6865H131.146V27.0502H138.687V23.6865H137.424L137.762 22.6692H142.48L142.799 23.6865H141.6V27.0502H149.482V23.6865H148.261L143.86 11.4014ZM138.869 19.531L139.411 17.9952L140.222 15.5339H140.313L141.035 18.0403L141.51 19.531H138.869Z" fill="white"/>
<path fill-rule="evenodd" clip-rule="evenodd" d="M149.11 17.5439H152.745V14.766H154.506V23.6865H152.632V27.0502H161.756V23.6865H159.928V14.766H161.711V17.5439H165.344V11.4014H149.11V17.5439Z" fill="white"/>
<path fill-rule="evenodd" clip-rule="evenodd" d="M180.593 12.9032C180.118 12.4432 179.487 12.0782 178.697 11.8067C177.907 11.5375 176.924 11.4014 175.748 11.4014H166.853V14.766H168.502V23.6872H166.853V27.051H176.089V23.6872H173.989V21.6091H176.134C177.067 21.6091 177.896 21.4777 178.619 21.2141C179.341 20.9505 179.947 20.5855 180.437 20.1184C180.924 19.6521 181.294 19.113 181.543 18.5026C181.79 17.8938 181.916 17.2344 181.916 16.5266C181.916 15.8197 181.813 15.1539 181.612 14.5292C181.407 13.9046 181.068 13.3623 180.593 12.9032ZM175.795 17.8978C175.57 18.2485 175.171 18.425 174.599 18.425H173.989V14.766H174.463C175.575 14.766 176.133 15.3945 176.133 16.6509C176.133 17.1299 176.021 17.5455 175.795 17.8978Z" fill="white"/>
<path fill-rule="evenodd" clip-rule="evenodd" d="M16.625 33.4689H18.3849V42.3886H16.625V45.754H25.2724V42.3886H23.8498V33.4689H28.3203V42.3886H26.8985V45.754H35.5031V42.3886H33.786V33.4689H35.5031V30.1035H16.625V33.4689Z" fill="white"/>
<path fill-rule="evenodd" clip-rule="evenodd" d="M48.3226 33.4689H49.7674V34.0516L44.6944 37.6465L44.6873 33.4689H46.155V30.1035H37.4839V33.4689H39.2446V42.3886H37.4839V45.754H46.155V42.3886H44.6873V41.6666L49.7674 38.0534V42.3886H48.3226V45.754H56.8821V42.3886H55.1412V33.4689H56.8821V30.1035H48.3226V33.4689Z" fill="white"/>
<path fill-rule="evenodd" clip-rule="evenodd" d="M73.0163 32.0338C72.3078 31.3189 71.433 30.7584 70.3864 30.3515C69.3382 29.9446 68.1167 29.7419 66.7162 29.7419C65.3158 29.7419 64.0934 29.9446 63.0461 30.3515C61.9995 30.7584 61.1271 31.3189 60.4241 32.0338C59.7274 32.7495 59.1978 33.6037 58.8463 34.5964C58.4924 35.5908 58.3151 36.6746 58.3151 37.8478C58.3151 39.0219 58.4924 40.1104 58.8463 41.1119C59.1978 42.1125 59.7274 42.9786 60.4241 43.7077C61.1271 44.4392 61.9987 45.0077 63.0461 45.413C64.0926 45.8191 65.3158 46.0234 66.7162 46.0234C68.1167 46.0234 69.3382 45.8191 70.3864 45.413C71.433 45.0069 72.3086 44.4392 73.0163 43.7077C73.7241 42.9786 74.2537 42.1117 74.6099 41.1119C74.963 40.1104 75.1388 39.0219 75.1388 37.8478C75.1388 36.6746 74.963 35.59 74.6099 34.5964C74.2545 33.6037 73.7241 32.7495 73.0163 32.0338ZM69.1656 39.7233C69.0833 40.2806 68.94 40.7548 68.7374 41.1451C68.5339 41.5378 68.2711 41.8386 67.9465 42.0492C67.6243 42.2598 67.2118 42.3659 66.7162 42.3659C66.2206 42.3659 65.8058 42.2558 65.4757 42.0389C65.144 41.8204 64.8756 41.5148 64.6729 41.1245C64.4695 40.7319 64.3262 40.2584 64.2431 39.7011C64.1607 39.1446 64.118 38.5279 64.118 37.8486C64.118 37.2469 64.1607 36.6785 64.2431 36.1442C64.3254 35.6106 64.4695 35.1427 64.6729 34.7437C64.8756 34.3447 65.144 34.0288 65.4757 33.7953C65.8058 33.5633 66.2206 33.4454 66.7162 33.4454C67.2118 33.4454 67.6243 33.5514 67.9465 33.762C68.2711 33.9726 68.5339 34.2734 68.7374 34.6661C68.94 35.0572 69.0841 35.5243 69.1656 36.0658C69.248 36.6081 69.2915 37.2034 69.2915 37.8494C69.2915 38.5413 69.248 39.1675 69.1656 39.7233Z" fill="white"/>
<path fill-rule="evenodd" clip-rule="evenodd" d="M86.846 33.4689H88.2694V36.2239H83.7973V33.4689H85.2207V30.1035H76.5718V33.4689H78.3317V42.3886H76.5718V45.754H85.2207V42.3886H83.7973V39.3407H88.2694V42.3886H86.846V45.754H95.4491V42.3886H93.7343V33.4689H95.4491V30.1035H86.846V33.4689Z" fill="white"/>
<path fill-rule="evenodd" clip-rule="evenodd" d="M109.353 42.3886H104.588V39.3407L108.044 39.4088V36.1558L104.588 36.2239V33.4689H109.172V36.2239H112.855V30.1035H97.4294V33.4689H99.1014V42.3886H97.4294V45.754H113.034V39.3407H109.353V42.3886Z" fill="white"/>
<path fill-rule="evenodd" clip-rule="evenodd" d="M128.836 31.6061C128.361 31.1469 127.729 30.782 126.939 30.5096C126.148 30.2389 125.166 30.1035 123.991 30.1035H115.095V33.4681H116.743V42.3878H115.095V45.7532H124.33V42.3878H122.231V40.3105H124.375C125.31 40.3105 126.136 40.1783 126.86 39.9154C127.582 39.6518 128.19 39.2861 128.677 38.819C129.167 38.3535 129.536 37.8151 129.784 37.2048C130.033 36.5944 130.157 35.9373 130.157 35.2296C130.157 34.5202 130.054 33.856 129.852 33.2306C129.65 32.6068 129.31 32.0645 128.836 31.6061ZM124.036 36.5991C123.812 36.9514 123.412 37.1264 122.84 37.1264H122.23V33.4681H122.703C123.819 33.4681 124.375 34.0959 124.375 35.3531C124.375 35.8328 124.262 36.2476 124.036 36.5991Z" fill="white"/>
<path fill-rule="evenodd" clip-rule="evenodd" d="M25.4085 61.8135H23.8054V52.87H25.4085V49.5505H16.625V52.87H18.3619V61.8135H16.625V65.1772H25.4085V61.8135Z" fill="white"/>
<path fill-rule="evenodd" clip-rule="evenodd" d="M24.4142 58.1776L27.9387 63.8911C28.1485 64.2078 28.3662 64.4706 28.5934 64.6812C28.8182 64.8933 29.0692 65.0548 29.3486 65.1673C29.6281 65.2805 29.9392 65.3541 30.2868 65.3937C30.6319 65.4309 31.0293 65.442 31.4822 65.4261C31.6318 65.4261 31.8361 65.4119 32.0926 65.3818C32.3467 65.3517 32.6174 65.3098 32.9032 65.2575C33.189 65.2053 33.4843 65.1411 33.7843 65.0659C34.086 64.9899 34.3631 64.8997 34.6203 64.7952V61.8819L32.4306 61.6792L29.2687 56.8469L31.8202 53.1197L33.7622 53.0073L34.0567 50.0939C33.0331 49.5382 31.9176 49.2579 30.7135 49.2579C30.0516 49.2579 29.4856 49.3719 29.0185 49.5968C28.553 49.8224 28.1239 50.2665 27.7321 50.9284L24.4126 56.4399V58.1776H24.4142Z" fill="white"/>
<path fill-rule="evenodd" clip-rule="evenodd" d="M44.9659 61.8136H43.4982V61.0909L48.5799 57.4785V61.8136H47.1359V65.1774H55.6946V61.8136H53.9553V52.8931H55.6946V49.5286H47.1359V52.8931H48.5799V53.4766L43.5069 57.0708L43.4982 52.8931H44.9659V49.5286H36.2964V52.8931H38.0563V61.8136H36.2964V65.1774H44.9659V61.8136Z" fill="white"/>
<path fill-rule="evenodd" clip-rule="evenodd" d="M67.9408 52.8931H69.3642V55.6489H64.8912V52.8931H66.3147V49.5286H57.6649V52.8931H59.4248V61.8136H57.6649V65.1774H66.3147V61.8136H64.8912V58.7649H69.3642V61.8136H67.9408V65.1774H76.5438V61.8136H74.829V52.8931H76.5438V49.5286H67.9408V52.8931Z" fill="white"/>
<path fill-rule="evenodd" clip-rule="evenodd" d="M80.0991 63.1342C80.7989 63.8649 81.6729 64.4325 82.7187 64.8394C83.7653 65.2456 84.9892 65.449 86.3889 65.449C87.7886 65.449 89.0109 65.2456 90.0575 64.8394C91.1041 64.4317 91.982 63.8649 92.6898 63.1342C93.3967 62.4043 93.9271 61.539 94.2802 60.5367C94.6341 59.5368 94.8122 58.4483 94.8122 57.2727C94.8122 56.0994 94.6341 55.0148 94.2802 54.0213C93.9279 53.0278 93.3967 52.1728 92.6898 51.4587C91.9812 50.7438 91.1041 50.1833 90.0575 49.7764C89.0117 49.3703 87.7886 49.166 86.3889 49.166C84.9892 49.166 83.7661 49.3695 82.7187 49.7764C81.6737 50.1833 80.7989 50.7438 80.0991 51.4587C79.3993 52.1728 78.8704 53.0278 78.5181 54.0213C78.1643 55.0148 77.9869 56.0994 77.9869 57.2727C77.9869 58.4475 78.1643 59.5361 78.5181 60.5367C78.8704 61.5398 79.3993 62.4043 80.0991 63.1342ZM83.9157 55.5698C83.9973 55.0362 84.1398 54.5676 84.3432 54.1693C84.5467 53.7719 84.8143 53.4545 85.146 53.2209C85.4777 52.9874 85.8909 52.871 86.3881 52.871C86.8845 52.871 87.2946 52.9771 87.6176 53.1869C87.9421 53.3975 88.205 53.6991 88.4084 54.0902C88.6119 54.4828 88.7552 54.9483 88.8391 55.4914C88.9214 56.0329 88.9618 56.6283 88.9618 57.2735C88.9618 57.967 88.9206 58.5916 88.8391 59.1481C88.756 59.7063 88.6119 60.1797 88.4084 60.57C88.205 60.9634 87.9421 61.2627 87.6176 61.4741C87.2946 61.6854 86.8845 61.7899 86.3881 61.7899C85.8909 61.7899 85.4777 61.6815 85.146 61.463C84.8143 61.2453 84.5467 60.9397 84.3432 60.5486C84.1398 60.1559 83.9965 59.6825 83.9157 59.1252C83.8318 58.5686 83.7906 57.9511 83.7906 57.2727C83.7906 56.6726 83.8318 56.1042 83.9157 55.5698Z" fill="white"/>
<path fill-rule="evenodd" clip-rule="evenodd" d="M99.9694 52.8931H101.73V61.8136H99.8562V65.1774H108.979V61.8136H107.151V52.8931H108.935V55.6711H112.57V49.5286H96.3333V55.6711H99.9694V52.8931Z" fill="white"/>
<path fill-rule="evenodd" clip-rule="evenodd" d="M129.68 58.7649H125.998V61.8136H121.234V58.7649L124.689 58.833V55.5801L121.234 55.6489V52.8931H125.818V55.6489H129.499V49.5286H114.077V52.8931H115.747V61.8136H114.077V65.1774H129.68V58.7649Z" fill="white"/>
<path fill-rule="evenodd" clip-rule="evenodd" d="M143.86 49.5286H137.152L132.343 61.8136H131.146V65.1774H138.688V61.8136H137.424L137.762 60.7964H142.48L142.799 61.8136H141.6V65.1774H149.482V61.8136H148.261L143.86 49.5286ZM138.869 57.6582L139.411 56.1224L140.222 53.6611H140.313L141.036 56.1675L141.511 57.6582H138.869Z" fill="white"/>
<path fill-rule="evenodd" clip-rule="evenodd" d="M149.11 55.6711H152.745V52.8931H154.506V61.8136H152.632V65.1774H161.756V61.8136H159.928V52.8931H161.711V55.6711H165.344V49.5286H149.11V55.6711Z" fill="white"/>
<path fill-rule="evenodd" clip-rule="evenodd" d="M180.593 51.0304C180.118 50.5704 179.487 50.2054 178.697 49.9339C177.907 49.6647 176.924 49.5286 175.748 49.5286H166.853V52.8931H168.502V61.8144H166.853V65.1782H176.089V61.8144H173.989V59.7363H176.134C177.067 59.7363 177.896 59.6049 178.619 59.3413C179.341 59.0776 179.947 58.7127 180.437 58.2456C180.924 57.7793 181.294 57.2402 181.543 56.6298C181.79 56.021 181.916 55.3616 181.916 54.6538C181.916 53.9469 181.813 53.2811 181.612 52.6564C181.407 52.0318 181.068 51.4895 180.593 51.0304ZM175.795 56.025C175.57 56.3757 175.171 56.5522 174.599 56.5522H173.989V52.8931H174.463C175.575 52.8931 176.133 53.5217 176.133 54.7781C176.133 55.2571 176.021 55.6727 175.795 56.025Z" fill="white"/>
</g>
</svg>
