<svg width="190" height="19" viewBox="0 0 190 19" fill="none" xmlns="http://www.w3.org/2000/svg">
<g clip-path="url(#clip0_455_666)">
<path d="M9.59311 5.65958L9.35031 5.41493C9.35031 4.06933 8.25773 2.84606 6.55812 2.84606C4.85852 2.84606 3.76593 3.84964 3.76593 5.17027C3.76593 6.63819 4.42248 7.49448 6.31531 8.05619L8.25773 8.61788C10.5643 9.25446 12.3853 10.7948 12.3853 13.7306C12.3853 16.2995 10.4429 18.9882 6.68199 18.9882C3.38191 18.9882 0.904372 16.4692 0.8573 13.7306L0.978694 13.486L3.16388 12.752L3.40668 12.9967C3.35713 15.1985 5.00965 16.4218 6.68446 16.4218C8.74824 16.4218 9.84082 15.3208 9.84082 13.7306C9.84082 12.0181 8.48066 11.3091 7.29147 11.0145C6.70924 10.8672 5.95607 10.6475 5.34907 10.4528C3.04249 9.69383 1.2215 8.10361 1.2215 5.17027C1.2215 2.47909 3.50331 0.399536 6.53829 0.399536C9.57324 0.399536 11.9022 2.47909 11.9022 5.41493L11.6594 5.65958H9.59311Z" fill="black"/>
<path d="M16.0247 1.01418L16.2675 0.769531H26.7054L26.9482 1.01418V2.9714L26.7054 3.21606H22.7735V18.382L22.5307 18.6267H20.4422L20.1994 18.382V3.21606H16.2675L16.0247 2.9714V1.01418Z" fill="black"/>
<path d="M31.0759 1.01418L31.3187 0.769531H36.6603C39.5738 0.769531 42.1208 2.60443 42.1208 5.78242C42.1208 8.74325 39.5714 10.5532 36.8783 10.6505L42.485 18.1349V18.6242H39.8142L39.5714 18.3796L33.9895 10.6755H33.6253V18.3796L33.3824 18.6242H31.3187L31.0759 18.3796V1.01418ZM36.7792 8.35129C38.236 8.35129 39.5714 7.495 39.5714 5.78242C39.5714 4.06985 38.236 3.21357 36.7792 3.21357H33.6228V8.34876H36.7792V8.35129Z" fill="black"/>
<path d="M45.8816 1.01418L46.1244 0.769531H56.3195L56.5623 1.01418V2.9714L56.3195 3.21606H48.431V8.35129H56.0767L56.3195 8.59592V10.5532L56.0767 10.7978H48.431V16.1777H56.3195L56.5623 16.4223V18.3796L56.3195 18.6242H46.1244L45.8816 18.3796V1.01418Z" fill="black"/>
<path d="M60.6899 1.01418L60.9327 0.769531H62.9965L63.2394 1.01418V16.1777H71.1278L71.3706 16.4223V18.3796L71.1278 18.6242H60.9327L60.6899 18.3796V1.01418Z" fill="black"/>
<path d="M86.5433 0.769531L86.6644 1.01418L79.8688 9.45219L86.9075 18.3796L86.7856 18.6242H83.9933L83.7511 18.3796L78.0475 11.0425V18.3796L77.8047 18.6242H75.7409L75.498 18.3796V1.01418L75.7409 0.769531H77.8294L78.0475 1.01418V8.10659L83.5081 1.01418L83.7511 0.769531H86.5433Z" fill="black"/>
<path d="M93.9454 1.01418L94.1885 0.769531H96.8596L97.1018 1.01418L101.958 18.3796L101.837 18.6242H99.5299L99.2876 18.3796L98.2442 14.2205H92.8062L91.7628 18.3796L91.5206 18.6242H89.2137L89.0925 18.3796L93.9454 1.01418ZM93.4602 11.7764H97.5879L95.524 3.95002L93.4602 11.7764Z" fill="black"/>
<path d="M130.965 0.769531L131.087 1.01418L124.291 9.45219L131.33 18.3796L131.208 18.6242H128.416L128.173 18.3796L122.468 11.0425V18.3796L122.225 18.6242H120.161L119.918 18.3796V1.01418L120.161 0.769531H122.249L122.468 1.01418V8.10659L127.928 1.01418L128.171 0.769531H130.965Z" fill="black"/>
<path d="M162.641 0.754028V3.69736L165.564 0.754028H162.641Z" fill="black"/>
<path d="M174.448 0.754028L162.641 12.6497V15.6329L177.407 0.754028H174.448Z" fill="black"/>
<path d="M186.289 0.754028L168.555 18.6237H171.515L189.25 0.754028H186.289Z" fill="black"/>
<path d="M180.397 18.6237H183.358L189.257 12.6796V9.69629L180.397 18.6237Z" fill="black"/>
<path d="M168.524 0.754028L162.641 6.68312V9.66393L171.485 0.754028H168.524Z" fill="black"/>
<path d="M180.367 0.754028L162.641 18.6162V18.6237H165.594L183.328 0.754028H180.367Z" fill="black"/>
<path d="M174.475 18.6236H177.436L189.257 6.71301V3.72974L174.475 18.6236Z" fill="black"/>
<path d="M186.319 18.6236H189.257V15.6628L186.319 18.6236Z" fill="black"/>
<path d="M186.343 0.754028L189.257 3.68987V0.754028H186.343Z" fill="black"/>
<path d="M175.955 0.754028V2.21945L189.257 15.623V12.6396L177.461 0.754028H175.955Z" fill="black"/>
<path d="M175.955 14.1524L180.395 18.6236H183.352L175.955 11.1692V14.1524Z" fill="black"/>
<path d="M180.422 0.753906L189.257 9.65628V6.67301L183.383 0.753906H180.422Z" fill="black"/>
<path d="M175.955 8.18638L186.316 18.6241H189.257V18.6066L175.955 5.20312V8.18638Z" fill="black"/>
<path d="M134.719 0.979027L134.962 0.734375H139.825C142.986 0.734375 145.419 2.69409 145.419 5.63493C145.419 7.2776 144.567 8.64815 143.254 9.457C144.713 10.2159 145.662 11.6389 145.662 13.5986C145.662 16.6618 143.229 18.624 140.068 18.624H134.962L134.719 18.3793V0.979027ZM139.948 8.33109C141.408 8.33109 142.867 7.59464 142.867 5.75725C142.867 3.91985 141.408 3.1834 139.948 3.1834H137.273V8.33109H139.948ZM140.192 16.1725C141.651 16.1725 143.11 15.1914 143.11 13.4763C143.11 11.5166 141.651 10.7801 140.192 10.7801H137.273V16.1725H140.192Z" fill="black"/>
</g>
<defs>
<clipPath id="clip0_455_666">
<rect width="190" height="19" fill="white"/>
</clipPath>
</defs>
</svg>
