<svg width="121" height="59" viewBox="0 0 121 59" fill="none" xmlns="http://www.w3.org/2000/svg">
<path d="M28.4519 30.7791V1.00684H35.1917V20.8138L48.0618 1.00684H54.7881V30.7791H48.0618V10.971L35.1917 30.7791H28.4519Z" fill="#4C2896"/>
<path d="M79.0312 18.447H66.9572V30.7791H60.249V1.00684H66.9572V12.2543H79.0312V1.00684H85.7721V30.7791H79.0312V18.447Z" fill="#4C2896"/>
<path d="M104.965 0.687622C96.4213 0.687622 89.4949 7.63601 89.4949 16.2092C89.4949 24.7823 96.4213 31.7307 104.965 31.7307C113.508 31.7307 120.435 24.7823 120.435 16.2092C120.435 7.63601 113.508 0.687622 104.965 0.687622ZM104.965 24.8311C100.219 24.8311 96.3704 20.9723 96.3704 16.2092C96.3704 11.4472 100.216 7.58608 104.965 7.58608C109.711 7.58608 113.56 11.4472 113.56 16.2092C113.56 20.9723 109.712 24.8311 104.965 24.8311Z" fill="#4C2896"/>
<path d="M13.8404 15.3657L26.611 30.7726H17.5948L7.30072 18.2068V30.7726H0.56543V23.8923V13.211V3.78806V1.00598H7.30072V9.88548V13.3438L17.2996 1.06839H25.4552L13.8404 15.3657Z" fill="#4C2896"/>
<path d="M5.97988 46.3264C4.4849 46.3264 3.22854 45.8442 2.21078 44.8843C1.19189 43.921 0.681885 42.6831 0.681885 41.1639C0.681885 39.6265 1.1885 38.3829 2.20287 37.4299C3.2161 36.4768 4.47473 36.0002 5.97874 36.0002C6.72171 36.0002 7.43074 36.1216 8.1036 36.3656C8.77758 36.6118 9.3396 36.9386 9.78968 37.3527L7.78131 39.7808C7.42396 39.294 6.88681 39.0501 6.17325 39.0501C5.61348 39.0501 5.14531 39.243 4.76988 39.6287C4.39331 40.0157 4.20559 40.5274 4.20559 41.1616C4.20559 41.7777 4.39557 42.2803 4.77666 42.6684C5.15662 43.0542 5.62253 43.247 6.17325 43.247C6.87889 43.247 7.41604 42.9849 7.78131 42.4607L9.79081 44.8752C8.82733 45.8419 7.5574 46.3264 5.97988 46.3264Z" fill="#4C2896"/>
<path d="M11.5244 46.0499V36.2775H14.6331V41.508H14.6885L17.5495 36.2775H20.9488V46.0499H17.839V41.1098H17.7848L15.0051 46.0499H11.5244Z" fill="#4C2896"/>
<path d="M23.5894 46.0499V36.2775H26.8643V39.5894H29.5331V36.2775H32.808V46.0499H29.5331V42.3374H26.8643V46.0499H23.5894Z" fill="#4C2896"/>
<path d="M35.4497 46.0499V36.2775H42.1488V39.0096H38.5301V39.8526H41.9294V42.4055H38.5301V43.3166H42.3829V46.0499H35.4497Z" fill="#4C2896"/>
<path d="M44.5698 46.0499V36.2775H48.8489L50.6096 41.5375H50.6786L52.2064 36.2775H56.6212V46.0499H53.4435L53.5397 40.555L53.4582 40.5425L51.6421 46.0499H49.3307L47.5417 40.5289H47.4738L47.6242 46.0499H44.5698Z" fill="#4C2896"/>
<path d="M58.1355 46.0499L61.9758 36.2775H65.4554L69.2517 46.0499H65.6884L65.1806 44.6146H62.0844L61.6049 46.0499H58.1355ZM62.8681 42.1026H64.4512L63.6676 39.687L62.8681 42.1026Z" fill="#4C2896"/>
<path d="M75.0312 46.0499V36.2775H84.2476V46.0499H80.9716V39.0244H78.305V46.0499H75.0312Z" fill="#4C2896"/>
<path d="M85.7607 46.0499L89.5999 36.2775H93.0829L96.8769 46.0499H93.3148L92.807 44.6146H89.7108L89.229 46.0499H85.7607ZM90.4933 42.1026H92.0742L91.2906 39.687L90.4933 42.1026Z" fill="#4C2896"/>
<path d="M98.3911 46.0499V36.2775H102.573C103.106 36.2775 103.595 36.3319 104.045 36.4431C104.494 36.5532 104.915 36.7279 105.304 36.9673C105.696 37.2056 106.001 37.546 106.226 37.9885C106.448 38.4298 106.561 38.9552 106.561 39.5622C106.561 40.1408 106.448 40.6514 106.226 41.0939C106.001 41.5375 105.697 41.8859 105.318 42.1446C104.935 42.4021 104.513 42.5927 104.05 42.7164C103.588 42.8401 103.093 42.9025 102.571 42.9025H101.649V46.0499H98.3911ZM101.652 40.4041H102.339C102.614 40.4041 102.849 40.3337 103.04 40.1953C103.233 40.058 103.329 39.856 103.329 39.5883C103.329 39.0834 102.999 38.8292 102.339 38.8292H101.652V40.4041Z" fill="#4C2896"/>
<path d="M108.627 46.0499V36.2775H111.819V39.8799H111.832L114.431 36.2775H118.286L114.623 40.749L118.464 46.0499H114.446L111.845 42.157H111.819V46.0499H108.627Z" fill="#4C2896"/>
<path d="M4.86946 57.8038V56.7044C3.63232 56.6851 2.64962 56.3878 1.91796 55.8046C1.03478 55.1136 0.59375 54.156 0.59375 52.9329C0.59375 51.5838 1.05626 50.5842 1.98129 49.933C2.66997 49.461 3.63232 49.2023 4.86946 49.1614V48.34H7.85827V49.1614C9.09428 49.2045 10.0566 49.461 10.7464 49.933C11.6715 50.5831 12.1329 51.5827 12.1329 52.9329C12.1329 54.156 11.6918 55.1136 10.8098 55.8046C10.0781 56.3878 9.09428 56.6862 7.85827 56.7044V57.8038H4.86946ZM4.93279 54.1742V51.6814C4.04055 51.7994 3.595 52.2181 3.595 52.934C3.595 53.642 4.04055 54.0573 4.93279 54.1742ZM7.79495 54.1742C8.68605 54.0562 9.13273 53.642 9.13273 52.9352C9.13273 52.2169 8.68605 51.8005 7.79495 51.6825V54.1742Z" fill="#4C2896"/>
<path d="M21.642 56.4771C20.7 57.3621 19.5149 57.8046 18.0855 57.8046C16.655 57.8046 15.4722 57.3621 14.5347 56.4771C13.5984 55.5921 13.1279 54.4405 13.1279 53.0222C13.1279 51.613 13.595 50.4807 14.5279 49.6252C15.4609 48.7697 16.6471 48.3419 18.0855 48.3419C19.5228 48.3419 20.7091 48.7697 21.6477 49.6252C22.584 50.4807 23.0533 51.613 23.0533 53.0222C23.0545 54.4416 22.584 55.5921 21.642 56.4771ZM18.0867 55.0237C18.5899 55.0237 19.0117 54.8353 19.3476 54.4598C19.6834 54.0842 19.8519 53.6065 19.8519 53.0222C19.8519 52.4504 19.6845 51.9852 19.3532 51.63C19.0207 51.2749 18.5989 51.099 18.0855 51.099C17.5721 51.099 17.1503 51.2749 16.8167 51.63C16.4843 51.9852 16.3192 52.4481 16.3192 53.0222C16.3192 53.6065 16.4843 54.0842 16.8167 54.4598C17.1503 54.8353 17.5721 55.0237 18.0867 55.0237Z" fill="#4C2896"/>
<path d="M24.5042 57.5545V48.5956H28.3388C28.8262 48.5956 29.2763 48.6466 29.6879 48.7476C30.0996 48.8486 30.484 49.0074 30.8414 49.2276C31.1987 49.4477 31.4803 49.7597 31.6861 50.1648C31.8931 50.5675 31.996 51.0486 31.996 51.6068C31.996 52.139 31.8931 52.6064 31.6861 53.0104C31.4803 53.4154 31.2033 53.7365 30.8538 53.9737C30.5055 54.2085 30.1176 54.3833 29.6936 54.499C29.2684 54.6124 28.8172 54.668 28.3377 54.668H27.493V57.5545H24.5042ZM27.4941 52.3784H28.124C28.375 52.3784 28.591 52.3126 28.7674 52.1878C28.9438 52.063 29.032 51.8769 29.032 51.6318C29.032 51.1678 28.729 50.9352 28.124 50.9352H27.4941V52.3784Z" fill="#4C2896"/>
<path d="M33.3203 57.5549V48.5948H37.2421L38.8558 53.4158H38.9191L40.3191 48.5948H44.3675V57.5549H41.4545L41.5427 52.5172L41.4669 52.5047L39.8023 57.5549H37.6842L36.0434 52.4922H35.9823L36.1203 57.5549H33.3203Z" fill="#4C2896"/>
<path d="M47.735 57.7429C47.1549 57.7429 46.6042 57.6749 46.0828 57.541L46.4481 55.1242C46.7591 55.2332 47.0667 55.2899 47.3697 55.2899C47.899 55.2899 48.2733 55.0766 48.4927 54.6454L48.5175 54.5944L45.1375 48.5968H48.6182L50.1437 51.9371L51.5188 48.5968H54.9113L51.495 55.316C51.0653 56.1499 50.5508 56.7638 49.9492 57.1575C49.3476 57.5466 48.6091 57.7429 47.735 57.7429Z" fill="#4C2896"/>
<path d="M55.643 57.6419C55.0447 57.6419 54.5449 57.5908 54.1423 57.4898L54.3312 55.0481C54.4827 55.0992 54.6591 55.123 54.8615 55.123C55.0289 55.123 55.1714 55.0992 55.289 55.0481C55.4066 54.9971 55.5287 54.8916 55.6554 54.7316C55.7798 54.5705 55.8759 54.3106 55.9381 53.9476C56.0014 53.5868 56.032 53.125 56.032 52.569V48.5956H63.7273V57.5545H60.725V51.1133H58.9088V52.1254C58.9088 53.2044 58.841 54.1064 58.7064 54.8269C58.573 55.5496 58.3626 56.1135 58.0765 56.522C57.7904 56.9316 57.4546 57.2198 57.0678 57.39C56.6811 57.5568 56.2061 57.6419 55.643 57.6419Z" fill="#4C2896"/>
<path d="M64.5449 57.5545L68.0641 48.5956H71.2531L74.7338 57.5545H71.4657L71.0009 56.2384H68.1625L67.7203 57.5545H64.5449ZM68.884 53.9328H70.3348L69.6145 51.7192L68.884 53.9328Z" fill="#4C2896"/>
<path d="M78.8977 57.5549V48.5948H81.8198V51.8966H81.8345L84.2217 48.5948H87.7511L84.3959 52.6953L87.9139 57.5549H84.2319L81.8481 53.9854H81.8198V57.5549H78.8977Z" fill="#4C2896"/>
<path d="M88.7065 57.5549V48.5948H91.5585V53.3897H91.6094L94.233 48.5948H97.3473V57.5549H94.4953V53.0233H94.4467L91.9012 57.5549H88.7065Z" fill="#4C2896"/>
<path d="M99.2007 57.5549V48.5948H102.203V51.6311H104.65V48.5948H107.65V57.5549H104.65V54.1511H102.203V57.5549H99.2007Z" fill="#4C2896"/>
<path d="M117.613 56.4771C116.672 57.3621 115.486 57.8046 114.056 57.8046C112.628 57.8046 111.442 57.3621 110.506 56.4771C109.567 55.5921 109.101 54.4405 109.101 53.0222C109.101 51.613 109.565 50.4807 110.499 49.6252C111.432 48.7697 112.618 48.3419 114.056 48.3419C115.493 48.3419 116.681 48.7697 117.618 49.6252C118.555 50.4807 119.024 51.613 119.024 53.0222C119.027 54.4416 118.555 55.5921 117.613 56.4771ZM114.056 55.0237C114.561 55.0237 114.981 54.8353 115.319 54.4598C115.655 54.0842 115.82 53.6065 115.82 53.0222C115.82 52.4504 115.655 51.9852 115.324 51.63C114.991 51.2749 114.569 51.099 114.054 51.099C113.543 51.099 113.12 51.2749 112.788 51.63C112.455 51.9852 112.29 52.4481 112.29 53.0222C112.29 53.6065 112.455 54.0842 112.788 54.4598C113.12 54.8353 113.544 55.0237 114.056 55.0237Z" fill="#4C2896"/>
</svg>
