<svg width="21" height="11" viewBox="0 0 21 11" fill="none" xmlns="http://www.w3.org/2000/svg">
<path d="M0.888672 0.046875H4.60059C5.36165 0.046875 6.01562 0.160807 6.5625 0.388672C7.11393 0.616536 7.53776 0.953776 7.83398 1.40039C8.13021 1.84701 8.27832 2.39616 8.27832 3.04785C8.27832 3.58105 8.18717 4.03906 8.00488 4.42188C7.82715 4.80013 7.57422 5.11686 7.24609 5.37207C6.92253 5.62272 6.54199 5.82324 6.10449 5.97363L5.45508 6.31543H2.22852L2.21484 4.71582H4.61426C4.97428 4.71582 5.27279 4.65202 5.50977 4.52441C5.74674 4.39681 5.92448 4.21908 6.04297 3.99121C6.16602 3.76335 6.22754 3.49902 6.22754 3.19824C6.22754 2.87923 6.16829 2.60352 6.0498 2.37109C5.93132 2.13867 5.7513 1.96094 5.50977 1.83789C5.26823 1.71484 4.96517 1.65332 4.60059 1.65332H2.93945V10H0.888672V0.046875ZM6.45312 10L4.18359 5.56348L6.35059 5.5498L8.64746 9.9043V10H6.45312ZM18.1535 0.046875H20.1975V6.62305C20.1975 7.38867 20.0334 8.03353 19.7053 8.55762C19.3817 9.08171 18.9328 9.47591 18.3586 9.74023C17.7889 10.0046 17.1327 10.1367 16.3898 10.1367C15.647 10.1367 14.9862 10.0046 14.4074 9.74023C13.8332 9.47591 13.382 9.08171 13.0539 8.55762C12.7303 8.03353 12.5686 7.38867 12.5686 6.62305V0.046875H14.6193V6.62305C14.6193 7.06966 14.69 7.43424 14.8313 7.7168C14.9725 7.99935 15.1753 8.20671 15.4396 8.33887C15.7085 8.47103 16.0253 8.53711 16.3898 8.53711C16.7635 8.53711 17.0803 8.47103 17.34 8.33887C17.6044 8.20671 17.8049 7.99935 17.9416 7.7168C18.0829 7.43424 18.1535 7.06966 18.1535 6.62305V0.046875Z" fill="#00029C"/>
</svg>
