<svg width="96" height="96" viewBox="0 0 96 96" fill="none" xmlns="http://www.w3.org/2000/svg">
<path d="M32.9893 74.6559H63.8495" stroke="#00029C" stroke-width="5" stroke-miterlimit="10"/>
<path d="M39.1611 87H57.6773" stroke="#00029C" stroke-width="5" stroke-miterlimit="10"/>
<path fill-rule="evenodd" clip-rule="evenodd" d="M23.5481 35.3217C23.5481 21.6068 34.5548 10.5 48.0058 10.5C61.4567 10.5 72.4634 21.6068 72.4634 35.3217V35.3883L72.4669 35.4548C72.8617 42.8572 69.7047 49.8843 63.9645 54.3136L63.8667 54.3891L63.7768 54.4738L63.4705 54.7622C60.6869 57.3813 57.3029 60.5653 56.1079 65.5H61.3257C62.3574 62.7292 64.4963 60.668 67.1192 58.1945C74.1207 52.7387 77.9182 44.1792 77.4633 35.2551C77.4278 18.8726 64.2591 5.5 48.0058 5.5C31.7563 5.5 18.59 18.8663 18.5482 35.2435C18.0168 44.1203 21.9037 52.7486 28.8923 58.1945C31.5152 60.668 33.6541 62.7292 34.6858 65.5H39.9036C38.7086 60.5653 35.3247 57.3813 32.541 54.7622L32.2347 54.4738L32.1448 54.3891L32.047 54.3136C26.2962 49.876 23.0849 42.7769 23.5432 35.4783L23.5481 35.4001V35.3217Z" fill="#00029C"/>
</svg>
